<?xml version="1.0" encoding="UTF-8" standalone="no"?>
<svg width="372px" height="429px" viewBox="0 0 372 429" version="1.1" xmlns="http://www.w3.org/2000/svg" xmlns:xlink="http://www.w3.org/1999/xlink">
    <!-- Generator: Sketch 40.3 (33839) - http://www.bohemiancoding.com/sketch -->
    <title>Group 4</title>
    <desc>Created with Sketch.</desc>
    <defs>
        <rect id="path-1" x="45" y="92" width="11" height="42" rx="3"></rect>
        <mask id="mask-2" maskContentUnits="userSpaceOnUse" maskUnits="objectBoundingBox" x="0" y="0" width="11" height="42" fill="white">
            <use xlink:href="#path-1"></use>
        </mask>
        <polygon id="path-3" points="31 167 53 167 53 195 31 195"></polygon>
        <mask id="mask-4" maskContentUnits="userSpaceOnUse" maskUnits="objectBoundingBox" x="0" y="0" width="22" height="28" fill="white">
            <use xlink:href="#path-3"></use>
        </mask>
        <path d="M31,109.996839 C31,107.789446 32.7917156,106 34.9947834,106 L45.0052166,106 C47.2114745,106 49,107.800684 49,110.005074 L49,132.994926 C49,135.206867 47.2413107,136.706885 45.0498236,136.341637 L34.9501764,134.658363 C32.7685542,134.294759 31,132.20588 31,130.003161 L31,109.996839 Z" id="path-5"></path>
        <mask id="mask-6" maskContentUnits="userSpaceOnUse" maskUnits="objectBoundingBox" x="0" y="0" width="18" height="30.396413" fill="white">
            <use xlink:href="#path-5"></use>
        </mask>
        <path d="M26.3711017,99.9348588 C26.7184326,98.313981 28.3430813,97 30.0013869,97 L45.9986131,97 C47.6562333,97 49,98.3423789 49,100.003351 L49,107.996649 C49,109.655354 47.6558914,111 46.0092478,111 L26.9907522,111 C25.3390054,111 24.2822327,109.682914 24.6288983,108.065141 L26.3711017,99.9348588 Z" id="path-7"></path>
        <mask id="mask-8" maskContentUnits="userSpaceOnUse" maskUnits="objectBoundingBox" x="0" y="0" width="24.4369352" height="14" fill="white">
            <use xlink:href="#path-7"></use>
        </mask>
        <rect id="path-9" x="40" y="64" width="5" height="33"></rect>
        <mask id="mask-10" maskContentUnits="userSpaceOnUse" maskUnits="objectBoundingBox" x="-4" y="-4" width="13" height="41">
            <rect x="36" y="60" width="13" height="41" fill="white"></rect>
            <use xlink:href="#path-9" fill="black"></use>
        </mask>
        <rect id="path-11" x="40" y="17" width="5" height="33"></rect>
        <mask id="mask-12" maskContentUnits="userSpaceOnUse" maskUnits="objectBoundingBox" x="-4" y="-4" width="13" height="41">
            <rect x="36" y="13" width="13" height="41" fill="white"></rect>
            <use xlink:href="#path-11" fill="black"></use>
        </mask>
        <rect id="path-13" x="33" y="50" width="19" height="11" rx="4"></rect>
        <mask id="mask-14" maskContentUnits="userSpaceOnUse" maskUnits="objectBoundingBox" x="0" y="0" width="19" height="11" fill="white">
            <use xlink:href="#path-13"></use>
        </mask>
        <rect id="path-15" x="33" y="2" width="22" height="15" rx="5"></rect>
        <mask id="mask-16" maskContentUnits="userSpaceOnUse" maskUnits="objectBoundingBox" x="0" y="0" width="22" height="15" fill="white">
            <use xlink:href="#path-15"></use>
        </mask>
        <polygon id="path-17" points="27 0 44 0 44 23 34.910006 30 27 23"></polygon>
        <mask id="mask-18" maskContentUnits="userSpaceOnUse" maskUnits="objectBoundingBox" x="0" y="0" width="17" height="30" fill="white">
            <use xlink:href="#path-17"></use>
        </mask>
    </defs>
    <g id="Page-1" stroke="none" stroke-width="1" fill="none" fill-rule="evenodd">
        <g id="Group-4">
            <polygon id="Shape" fill="#000000" points="371.4 321.9 185.9 429 0.3 321.9 0.3 107.6 185.9 0.4 371.4 107.6"></polygon>
            <polygon id="Shape" fill="#FFFFFF" points="360.875 315.819267 185.897164 416.844206 10.825 315.819267 10.825 113.675061 185.897164 12.5557936 360.875 113.675061"></polygon>
            <rect id="Rectangle-9" fill="#008100" x="80.8974609" y="160" width="200.205078" height="42" rx="2"></rect>
            <rect id="Rectangle-9" fill="#008100" x="80.8974609" y="244" width="200.205078" height="42" rx="2"></rect>
            <path d="M262.8,72.3 L186.9,28.5 L186.9,28.5 C186.8,28.4 186.7,28.4 186.6,28.4 L186.6,28.4 L186.6,28.4 L186.5,28.4 L186.4,28.4 L186.1,28.4 C186.1,28.4 186.1,28.4 186,28.4 L185.9,28.4 L185.5,28.4 L185.5,28.4 L185.5,28.4 L185.5,28.4 C185.4,28.4 185.3,28.5 185.2,28.5 L185.2,28.5 L110.5,71.6 C109.6,72.1 109.3,73.2 109.8,74.1 C110.3,75 111.5,75.3 112.3,74.8 L178.7,36.5 L150.5,72.5 C149.9,73.3 150,74.5 150.8,75.1 C151.6,75.7 152.8,75.6 153.4,74.8 L184.2,35.5 L184.2,73.9 C184.2,74.9 185,75.8 186.1,75.8 C187.2,75.8 188,75 188,73.9 L188,35.5 L218.8,74.8 C219.2,75.3 219.7,75.5 220.3,75.5 C220.7,75.5 221.1,75.4 221.4,75.1 C222.2,74.5 222.3,73.3 221.7,72.5 L193.5,36.5 L261.1,75.5 C261.4,75.7 261.7,75.7 262,75.7 C262.6,75.7 263.3,75.4 263.6,74.8 C264,74 263.7,72.8 262.8,72.3 L262.8,72.3 Z" id="Shape" fill="#008100"></path>
            <path d="M262.3,355.2 C261.8,354.3 260.6,354 259.8,354.5 L193.5,392.8 L221.7,356.8 C222.3,356 222.2,354.8 221.4,354.2 C220.6,353.6 219.4,353.7 218.8,354.5 L188,393.8 L188,355.4 C188,354.4 187.2,353.5 186.1,353.5 C185,353.5 184.2,354.3 184.2,355.4 L184.2,393.8 L153.4,354.5 C152.8,353.7 151.6,353.6 150.8,354.2 C150,354.8 149.9,356 150.5,356.8 L178.7,392.8 L111.1,353.8 C110.2,353.3 109.1,353.6 108.6,354.5 C108.1,355.4 108.4,356.5 109.3,357 L185.2,400.8 L185.3,400.8 C185.4,400.8 185.4,400.9 185.5,400.9 L185.6,400.9 L185.7,400.9 L185.8,400.9 C185.9,400.9 186.1,401 186.2,401 L186.2,401 L186.2,401 L186.2,401 L186.2,401 C186.4,401 186.5,401 186.6,400.9 L186.7,400.9 L186.8,400.9 C186.9,400.9 186.9,400.8 187,400.8 L187.1,400.8 L261.8,357.7 C262.5,357.3 262.8,356.1 262.3,355.2 L262.3,355.2 Z" id="Shape" fill="#008100"></path>
            <circle id="Oval" fill="#000000" cx="267.3" cy="351.7" r="2.3"></circle>
            <circle id="Oval" fill="#000000" cx="103.8" cy="351.7" r="2.3"></circle>
            <g id="Group-2" transform="translate(99.000000, 92.000000)">
                <path d="M2.6471831,17.4857143 C3.6556338,17.4857143 4.41197183,16.7142857 4.41197183,15.6857143 L4.41197183,6.55714286 L11.7232394,16.3285714 C12.2274648,16.9714286 12.7316901,17.4857143 13.6140845,17.4857143 L13.7401408,17.4857143 C14.7485915,17.4857143 15.6309859,16.7142857 15.6309859,15.5571429 L15.6309859,2.05714286 C15.6309859,1.02857143 14.8746479,0.257142857 13.8661972,0.257142857 C12.8577465,0.257142857 12.1014085,1.02857143 12.1014085,2.05714286 L12.1014085,10.8 L5.04225352,1.28571429 C4.53802817,0.642857143 4.03380282,0.128571429 3.15140845,0.128571429 L2.77323944,0.128571429 C1.76478873,0.128571429 0.882394366,0.9 0.882394366,2.05714286 L0.882394366,15.5571429 C0.882394366,16.7142857 1.63873239,17.4857143 2.6471831,17.4857143 L2.6471831,17.4857143 Z" id="Shape" fill="#000000"></path>
                <path d="M27.7323944,17.6142857 C32.9007042,17.6142857 36.6823944,13.6285714 36.6823944,8.87142857 L36.6823944,8.87142857 C36.6823944,3.98571429 33.0267606,0.128571429 27.8584507,0.128571429 C22.6901408,0.128571429 18.9084507,4.11428571 18.9084507,8.87142857 L18.9084507,8.87142857 C18.9084507,13.7571429 22.5640845,17.6142857 27.7323944,17.6142857 L27.7323944,17.6142857 Z M22.8161972,8.87142857 C22.8161972,5.91428571 24.8330986,3.6 27.8584507,3.6 C30.7577465,3.6 32.9007042,6.04285714 32.9007042,9 L32.9007042,9 C32.9007042,11.9571429 30.8838028,14.2714286 27.8584507,14.2714286 C24.8330986,14.1428571 22.8161972,11.8285714 22.8161972,8.87142857 L22.8161972,8.87142857 L22.8161972,8.87142857 Z" id="Shape" fill="#000000"></path>
                <path d="M41.7246479,17.3571429 L46.3887324,17.3571429 C51.6830986,17.3571429 55.2126761,13.6285714 55.2126761,8.87142857 L55.2126761,8.87142857 C55.2126761,4.11428571 51.5570423,0.385714286 46.3887324,0.385714286 L41.7246479,0.385714286 C40.7161972,0.385714286 39.8338028,1.15714286 39.8338028,2.31428571 L39.8338028,15.4285714 C39.9598592,16.5857143 40.7161972,17.3571429 41.7246479,17.3571429 L41.7246479,17.3571429 Z M43.615493,3.72857143 L46.3887324,3.72857143 C49.4140845,3.72857143 51.4309859,5.78571429 51.4309859,8.87142857 L51.4309859,8.87142857 C51.4309859,11.8285714 49.4140845,14.0142857 46.3887324,14.0142857 L43.615493,14.0142857 L43.615493,3.72857143 L43.615493,3.72857143 Z" id="Shape" fill="#000000"></path>
                <path d="M60.3809859,17.3571429 L69.7091549,17.3571429 C70.5915493,17.3571429 71.3478873,16.5857143 71.3478873,15.6857143 C71.3478873,14.7857143 70.5915493,14.0142857 69.7091549,14.0142857 L62.1457746,14.0142857 L62.1457746,10.4142857 L68.4485915,10.4142857 C69.3309859,10.4142857 70.0873239,9.64285714 70.0873239,8.74285714 C70.0873239,7.84285714 69.3309859,7.07142857 68.4485915,7.07142857 L62.1457746,7.07142857 L62.1457746,3.6 L69.5830986,3.6 C70.465493,3.6 71.221831,2.82857143 71.221831,1.92857143 C71.221831,1.02857143 70.465493,0.257142857 69.5830986,0.257142857 L60.3809859,0.257142857 C59.3725352,0.257142857 58.4901408,1.02857143 58.4901408,2.18571429 L58.4901408,15.4285714 C58.6161972,16.5857143 59.3725352,17.3571429 60.3809859,17.3571429 L60.3809859,17.3571429 Z" id="Shape" fill="#000000"></path>
                <path d="M74.2471831,15.5571429 C76.1380282,16.9714286 78.2809859,17.6142857 80.55,17.6142857 C84.2056338,17.6142857 86.7267606,15.6857143 86.7267606,12.3428571 L86.7267606,12.3428571 C86.7267606,9.38571429 84.8359155,8.1 81.4323944,7.2 C78.5330986,6.42857143 77.7767606,6.04285714 77.7767606,5.01428571 L77.7767606,5.01428571 C77.7767606,4.24285714 78.5330986,3.47142857 79.9197183,3.47142857 C81.0542254,3.47142857 82.1887324,3.85714286 83.4492958,4.62857143 C83.7014085,4.75714286 84.0795775,4.88571429 84.3316901,4.88571429 C85.3401408,4.88571429 86.0964789,4.11428571 86.0964789,3.21428571 C86.0964789,2.44285714 85.7183099,1.92857143 85.3401408,1.67142857 C83.8274648,0.642857143 82.0626761,0.128571429 80.0457746,0.128571429 C76.6422535,0.128571429 74.2471831,2.18571429 74.2471831,5.27142857 L74.2471831,5.27142857 C74.2471831,8.61428571 76.3901408,9.64285714 79.793662,10.4142857 C82.5669014,11.1857143 83.1971831,11.5714286 83.1971831,12.6 L83.1971831,12.6 C83.1971831,13.6285714 82.3147887,14.1428571 80.8021127,14.1428571 C79.1633803,14.1428571 77.7767606,13.5 76.5161972,12.6 C76.2640845,12.4714286 75.8859155,12.2142857 75.5077465,12.2142857 C74.4992958,12.2142857 73.7429577,12.9857143 73.7429577,13.8857143 C73.4908451,14.7857143 73.8690141,15.3 74.2471831,15.5571429 L74.2471831,15.5571429 Z" id="Shape" fill="#008100"></path>
                <path d="M97.5676056,17.6142857 C100.214789,17.6142857 101.979577,16.8428571 103.492254,15.4285714 C103.870423,15.1714286 104.122535,14.6571429 104.122535,14.1428571 C104.122535,13.2428571 103.366197,12.4714286 102.357746,12.4714286 C101.979577,12.4714286 101.601408,12.6 101.223239,12.8571429 C100.214789,13.7571429 99.206338,14.1428571 97.5676056,14.1428571 C94.6683099,14.1428571 92.7774648,11.7 92.7774648,8.74285714 L92.7774648,8.74285714 C92.7774648,5.78571429 94.7943662,3.47142857 97.5676056,3.47142857 C98.828169,3.47142857 99.9626761,3.85714286 100.971127,4.62857143 C101.223239,4.75714286 101.601408,5.01428571 102.105634,5.01428571 C103.114085,5.01428571 103.870423,4.24285714 103.870423,3.21428571 C103.870423,2.57142857 103.492254,2.05714286 103.114085,1.67142857 C101.727465,0.642857143 100.088732,0 97.5676056,0 C92.3992958,0 88.8697183,3.98571429 88.8697183,8.74285714 L88.8697183,8.74285714 C89.121831,13.7571429 92.7774648,17.6142857 97.5676056,17.6142857 L97.5676056,17.6142857 Z" id="Shape" fill="#008100"></path>
                <path d="M109.290845,17.4857143 C110.299296,17.4857143 111.18169,16.7142857 111.18169,15.5571429 L111.18169,10.4142857 L117.988732,10.4142857 L117.988732,15.5571429 C117.988732,16.5857143 118.74507,17.4857143 119.879577,17.4857143 C120.888028,17.4857143 121.770423,16.7142857 121.770423,15.5571429 L121.770423,2.05714286 C121.770423,1.02857143 121.014085,0.128571429 119.879577,0.128571429 C118.871127,0.128571429 117.988732,0.9 117.988732,2.05714286 L117.988732,7.07142857 L111.18169,7.07142857 L111.18169,2.05714286 C111.18169,1.02857143 110.425352,0.128571429 109.290845,0.128571429 C108.282394,0.128571429 107.4,0.9 107.4,2.05714286 L107.4,15.5571429 C107.4,16.7142857 108.156338,17.4857143 109.290845,17.4857143 L109.290845,17.4857143 Z" id="Shape" fill="#008100"></path>
                <path d="M133.619718,17.6142857 C138.788028,17.6142857 142.443662,13.6285714 142.443662,8.87142857 L142.443662,8.87142857 C142.443662,3.98571429 138.788028,0.128571429 133.619718,0.128571429 C128.451408,0.128571429 124.669718,4.11428571 124.669718,8.87142857 L124.669718,8.87142857 C124.795775,13.7571429 128.451408,17.6142857 133.619718,17.6142857 L133.619718,17.6142857 Z M128.577465,8.87142857 C128.577465,5.91428571 130.594366,3.6 133.619718,3.6 C136.519014,3.6 138.661972,6.04285714 138.661972,9 L138.661972,9 C138.661972,11.9571429 136.64507,14.2714286 133.619718,14.2714286 C130.720423,14.1428571 128.577465,11.8285714 128.577465,8.87142857 L128.577465,8.87142857 L128.577465,8.87142857 Z" id="Shape" fill="#008100"></path>
                <path d="M153.914789,17.6142857 C159.083099,17.6142857 162.864789,13.6285714 162.864789,8.87142857 L162.864789,8.87142857 C162.864789,3.98571429 159.209155,0.128571429 154.040845,0.128571429 C148.872535,0.128571429 145.090845,4.11428571 145.090845,8.87142857 L145.090845,8.87142857 C145.090845,13.7571429 148.746479,17.6142857 153.914789,17.6142857 L153.914789,17.6142857 Z M148.872535,8.87142857 C148.872535,5.91428571 150.889437,3.6 153.914789,3.6 C156.814085,3.6 158.957042,6.04285714 158.957042,9 L158.957042,9 C158.957042,11.9571429 156.940141,14.2714286 153.914789,14.2714286 C151.015493,14.1428571 148.872535,11.8285714 148.872535,8.87142857 L148.872535,8.87142857 L148.872535,8.87142857 Z" id="Shape" fill="#008100"></path>
                <path d="M167.907042,17.3571429 L176.478873,17.3571429 C177.361268,17.3571429 178.117606,16.5857143 178.117606,15.6857143 C178.117606,14.7857143 177.361268,14.0142857 176.478873,14.0142857 L169.671831,14.0142857 L169.671831,2.18571429 C169.671831,1.15714286 168.915493,0.257142857 167.780986,0.257142857 C166.772535,0.257142857 165.890141,1.02857143 165.890141,2.18571429 L165.890141,15.4285714 C166.016197,16.5857143 166.898592,17.3571429 167.907042,17.3571429 L167.907042,17.3571429 Z" id="Shape" fill="#008100"></path>
            </g>
            <g id="Group" transform="translate(136.000000, 333.000000)" fill="#000000">
                <path d="M45.1,1.4 C45.1,0.7 45.6,0.2 46.3,0.2 L49.4,0.2 C52.9,0.2 55.4,2.6 55.4,5.8 L55.4,5.8 C55.4,9 53,11.4 49.4,11.4 L46.3,11.4 C45.6,11.4 45.1,10.9 45.1,10.2 L45.1,1.4 L45.1,1.4 Z M49.5,9.1 C51.5,9.1 52.9,7.7 52.9,5.8 L52.9,5.8 C52.9,3.8 51.5,2.4 49.5,2.4 L47.6,2.4 L47.6,9.2 L49.5,9.2 L49.5,9.1 Z" id="Shape"></path>
                <path d="M86.5,8.3 C86.5,7.6 87,7.1 87.7,7.1 L88,7.1 C88.5,7.1 88.9,7.4 89.1,7.7 L92.1,12.5 L95.1,7.6 C95.4,7.2 95.7,7 96.2,7 L96.5,7 C97.2,7 97.7,7.5 97.7,8.2 L97.7,17.1 C97.7,17.8 97.2,18.3 96.5,18.3 C95.8,18.3 95.3,17.7 95.3,17.1 L95.3,11.5 L93.1,14.8 C92.8,15.2 92.5,15.4 92.1,15.4 C91.7,15.4 91.3,15.2 91.1,14.8 L89,11.5 L89,17.1 C89,17.8 88.5,18.3 87.8,18.3 C87.1,18.3 86.6,17.8 86.6,17.1 L86.6,8.3 L86.5,8.3 Z" id="Shape" transform="translate(92.100000, 12.650000) rotate(-315.000000) translate(-92.100000, -12.650000) "></path>
                <path d="M2.9,8.4 C2.9,7.7 3.4,7.2 4.1,7.2 L8,7.2 C9.4,7.2 10.5,7.6 11.3,8.3 C11.9,8.9 12.3,9.8 12.3,10.9 L12.3,10.9 C12.3,12.7 11.4,13.7 10.1,14.3 L11.8,16.4 C12,16.7 12.2,17 12.2,17.3 C12.2,18 11.6,18.4 11,18.4 C10.4,18.4 10.1,18.1 9.8,17.8 L7.4,14.8 L5.4,14.8 L5.4,17.2 C5.4,17.9 4.9,18.4 4.2,18.4 C3.5,18.4 3,17.9 3,17.2 L3,8.4 L2.9,8.4 Z M7.8,12.6 C9,12.6 9.7,12 9.7,11 L9.7,11 C9.7,9.9 9,9.4 7.8,9.4 L5.4,9.4 L5.4,12.6 L7.8,12.6 L7.8,12.6 Z" id="Shape" transform="translate(7.600000, 12.800000) rotate(-30.000000) translate(-7.600000, -12.800000) "></path>
            </g>
            <path d="M156.984985,286.381592 L149.654297,268.504395 C149.654297,268.504395 147.043734,257.693195 158.830688,254.639404 L162.064331,254.08519 C162.064331,254.08519 161.609741,250.971191 164.671753,250.954712 C167.733765,250.938232 172.988647,250.954712 172.988647,250.954712 L172.988647,241.983521" id="Path-11" stroke="#FFFFFF" stroke-width="7"></path>
            <path d="M177.813965,202.04248 L177.813965,184.87814 C177.813965,184.87814 175.008301,184.541992 175.008301,180.649414 C175.008301,176.756836 175.333496,175.808105 175.333496,175.808105 C175.333496,175.808105 176.154785,174.104004 178.037598,174.104004 L178.037598,155.924266" id="Path-13" stroke="#FFFFFF" stroke-width="7"></path>
            <path d="M177.813965,202.04248 L177.813965,184.87814 C177.813965,184.87814 175.008301,184.541992 175.008301,180.649414 C175.008301,176.756836 175.333496,175.808105 175.333496,175.808105 C175.333496,175.808105 176.154785,174.104004 178.037598,174.104004 L178.037598,155.924266" id="Path-13" stroke="#FFFFFF" stroke-width="7"></path>
            <path d="M193.813965,202.04248 L193.813965,184.87814 C193.813965,184.87814 191.008301,184.541992 191.008301,180.649414 C191.008301,176.756836 191.333496,175.808105 191.333496,175.808105 C191.333496,175.808105 192.154785,174.104004 194.037598,174.104004 L194.037598,155.924266" id="Path-13" stroke="#FFFFFF" stroke-width="7" transform="translate(192.522949, 178.983373) scale(-1, 1) translate(-192.522949, -178.983373) "></path>
            <path d="M219.865234,286.168945 C219.865234,286.168945 221.278564,284.187744 221.74292,282.167969 C222.207275,280.148193 225.152344,263.934814 225.152344,263.934814 C225.152344,263.934814 226.112549,258.897217 223.927734,256.861572 C221.74292,254.825928 220.101318,254.785645 220.101318,254.785645 L214.824707,254.459961 C214.824707,254.459961 216.147461,250.930176 212.824951,250.930176 C209.502441,250.930176 198.157715,250.979492 198.157715,250.979492 L198.157715,241.898194" id="Path-12" stroke="#FFFFFF" stroke-width="7"></path>
            <g id="Group-3" transform="translate(142.000000, 124.000000)">
                <rect id="Rectangle-4" fill="#000000" x="0" y="190" width="86" height="5" rx="2.5"></rect>
                <use id="Rectangle-6" stroke="#000000" mask="url(#mask-2)" stroke-width="8" fill="#71B771" xlink:href="#path-1"></use>
                <rect id="Rectangle-11" fill="#299929" x="34" y="109" width="6" height="21"></rect>
                <rect id="Rectangle-11" fill="#299929" x="39" y="64" width="6" height="33"></rect>
                <rect id="Rectangle-11" fill="#299929" x="39" y="17" width="6" height="33"></rect>
                <use id="Rectangle" stroke="#000000" mask="url(#mask-4)" stroke-width="10" fill="#094009" xlink:href="#path-3"></use>
                <use id="Rectangle" stroke="#000000" mask="url(#mask-6)" stroke-width="10" fill="#6E816E" xlink:href="#path-5"></use>
                <circle id="Oval" cx="45.5" cy="122.4" r="0.5"></circle>
                <rect id="Rectangle-11" fill="#FFFFFF" opacity="0.335004664" x="36" y="163" width="4" height="27"></rect>
                <path d="M22.2441406,167.415527 L10.8237305,140.520996 C10.8237305,140.520996 11.9150391,133.535156 16.8110352,133.535156 C20.6258639,133.535156 31.9907227,129.072754 26.9248047,133.535156 C21.8588867,137.997559 24.3235722,159.975405 27.9389648,166.01709 L22.2441406,167.415527 Z" id="Path-8" fill="#299929"></path>
                <path d="M31.1674861,169.459232 L23.6947049,169.459232 C22.0370156,169.459232 20.1750279,168.22396 19.5317599,166.690451 L10.5658092,145.316207 C8.85885635,141.246942 10.5784344,136.174844 14.4927607,134.095932 C14.4927607,134.095932 14.2298305,133.979232 16.1386719,133.389648 C19.4241154,132.374874 26.7990604,132.010742 34.2783203,132.010742 C46.1030273,132.010742 76.8330498,133.202248 76.8330498,133.202248 C79.5960684,133.305746 81.4200875,135.587927 80.9060702,138.305141 L77.0745877,158.559241 C76.8683558,159.64943 75.8572198,160.847094 74.8337206,161.227763 L50.4418945,170.299805" id="Path-2" stroke="#000000" stroke-width="5" fill="#BDC7BD"></path>
                <path d="M74.1455832,158.995605 C74.1455832,158.995605 31.4559494,156.800781 19.4853516,162.06543 C7.5147537,167.330078 33.3862305,171.048828 33.3862305,171.048828 L67.9981642,165.696777 L75,159.070312 L74.1455832,158.995605 Z" id="Path-3" fill="#000000"></path>
                <path d="M35.4906539,173.03418 C35.4906539,173.03418 47.9675287,178.010254 51.3283541,182.505371 C54.6891795,187.000488 51.9432053,164.415527 51.9432053,164.415527 L34.0756836,170.553711 L35.4906539,173.03418 Z" id="Path-4" fill="#000000"></path>
                <use id="Rectangle-5" stroke="#000000" mask="url(#mask-8)" stroke-width="10" fill="#0A400A" xlink:href="#path-7"></use>
                <path d="M43.152832,131.642578 C43.152832,131.642578 49.9125977,117.002441 59.8510742,112.654785" id="Path-5" stroke="#000000" stroke-width="4"></path>
                <path d="M45.9960938,115.417969 C45.9960938,115.417969 49.9125977,105.002441 59.8510742,100.654785" id="Path-5" stroke="#000000" stroke-width="4"></path>
                <g id="Rectangle-7">
                    <use fill="#FFFFFF" fill-rule="evenodd" xlink:href="#path-9"></use>
                    <use stroke="#000000" mask="url(#mask-10)" stroke-width="8" xlink:href="#path-9"></use>
                </g>
                <g id="Rectangle-7">
                    <use fill="#FFFFFF" fill-rule="evenodd" xlink:href="#path-11"></use>
                    <use stroke="#000000" mask="url(#mask-12)" stroke-width="8" xlink:href="#path-11"></use>
                </g>
                <use id="Rectangle-2" stroke="#000000" mask="url(#mask-14)" stroke-width="8" fill="#0A400A" xlink:href="#path-13"></use>
                <use id="Rectangle-8" stroke="#000000" mask="url(#mask-16)" stroke-width="8" fill="#0A400A" xlink:href="#path-15"></use>
                <path d="M38.0390625,62.949707 C38.0390625,62.949707 40.5114746,63.2868652 42.8918457,65.2492676 C45.2722168,67.2116699 45.9697266,69.7033691 45.9697266,69.7033691 L45.9697266,59.7641602 L38.0390625,62.949707 Z" id="Path-6" fill="#000000"></path>
                <polyline id="Path-9" fill="#FFFFFF" points="36.0649414 129.540039 36.0649414 112.836584 39.703125 110.287598 39.703125 129.69059 36.4730173 129.69059"></polyline>
                <path d="M35.375,112.890625 C35.375,112.890625 42.5053711,112.434082 44.7753906,117.330566 C47.0454102,122.227051 46.1333008,107.218262 46.1333008,107.218262 L33.6220703,109.432617 L35.375,112.890625 Z" id="Path-7" fill="#000000"></path>
                <use id="Rectangle-10" stroke="#000000" mask="url(#mask-18)" stroke-width="8" fill="#008100" xlink:href="#path-17"></use>
                <path d="M13.029541,145.085938 C13.029541,145.085938 23.9401855,172.50293 19.2963867,157.185059 C14.6525879,141.867188 16.8859628,137.359009 21.4462891,136.681641 C31.6796875,135.161621 77.6992188,135.790527 77.6992188,135.790527 C77.0151367,135.790527 41.9682617,134.569824 41.9682617,134.569824 C41.9682617,134.569824 30.1411133,134.585449 19.9960938,135.187988 C9.85107422,135.790527 13.029541,145.085938 13.029541,145.085938 Z" id="Path-10" fill="#FFFFFF"></path>
                <rect id="Rectangle-3" fill="#000000" x="20" y="127" width="53" height="5" rx="2.5"></rect>
            </g>
            <path d="M163.482741,265 L170.824482,265 L171.193325,275.562296 C168.880168,275.615506 166.651705,275.669391 164.609491,275.720307 L163.482741,265 Z M160.466216,265 L154,265 L154,276 C154,276 157.058231,275.913345 161.600975,275.796507 L160.466216,265 Z M173.82631,265 L181,265 L181,275.355194 C178.752194,275.397589 176.453628,275.445194 174.192798,275.494834 L173.82631,265 Z M211.602658,265 L204,265 L204,275.339292 C206.166276,275.402566 208.317217,275.479197 210.306356,275.557531 L211.602658,265 Z M214.625188,265 L220,265 L220,276 C220,276 217.242765,275.851912 213.313616,275.681896 L214.625188,265 Z M201,265 L194,265 L194,275.185294 C194.317498,275.184331 194.625584,275.183838 194.923584,275.183838 C196.80369,275.183838 198.876271,275.21339 201,275.261249 L201,265 Z M191,265 L184,265 L184,275.301341 C186.4957,275.259001 188.873046,275.225332 191,275.205074 L191,265 Z" id="Combined-Shape" fill="#000000"></path>
        </g>
    </g>
</svg>